HIERARCHY
ROOT RootJoint
{
    OFFSET   0.000000   0.000000   0.000000
    CHANNELS 6 Xposition Yposition Zposition Xrotation Yrotation Zrotation
    JOINT pelvis_lowerback
    {
        OFFSET   0.000000   0.093605   0.000000
        CHANNELS 3 Xrotation Yrotation Zrotation
        JOINT lowerback_torso
        {
            OFFSET   0.000000   0.100000   0.000000
            CHANNELS 3 Xrotation Yrotation Zrotation
            JOINT torso_head
            {
                OFFSET   0.000000   0.282350   0.000000
                CHANNELS 3 Xrotation Yrotation Zrotation
                End Site
                {
                    OFFSET   0.000000   0.192650   0.000000
                }
            }
            JOINT rTorso_Clavicle
            {
                OFFSET  -0.001000   0.157500   0.000000
                CHANNELS 3 Xrotation Yrotation Zrotation
                JOINT rShoulder
                {
                    OFFSET  -0.117647   0.000000   0.000000
                    CHANNELS 3 Xrotation Yrotation Zrotation
                    JOINT rElbow
                    {
                        OFFSET  -0.245000   0.000000   0.000000
                        CHANNELS 3 Xrotation Yrotation Zrotation
                        JOINT rWrist
                        {
                            OFFSET  -0.240000   0.000000   0.000000
                            CHANNELS 3 Xrotation Yrotation Zrotation
                            End Site
                            {
                                OFFSET  -0.116353  -0.002500   0.000000
                            }
                        }
                    }
                }
            }
            JOINT lTorso_Clavicle
            {
                OFFSET   0.001000   0.157500   0.000000
                CHANNELS 3 Xrotation Yrotation Zrotation
                JOINT lShoulder
                {
                    OFFSET   0.117647   0.000000   0.000000
                    CHANNELS 3 Xrotation Yrotation Zrotation
                    JOINT lElbow
                    {
                        OFFSET   0.245000   0.000000   0.000000
                        CHANNELS 3 Xrotation Yrotation Zrotation
                        JOINT lWrist
                        {
                            OFFSET   0.240000   0.000000   0.000000
                            CHANNELS 3 Xrotation Yrotation Zrotation
                            End Site
                            {
                                OFFSET   0.116353  -0.002500   0.000000
                            }
                        }
                    }
                }
            }
        }
    }
    JOINT rHip
    {
        OFFSET  -0.100000  -0.051395   0.000000
        CHANNELS 3 Xrotation Yrotation Zrotation
        JOINT rKnee
        {
            OFFSET   0.000000  -0.410000   0.000000
            CHANNELS 3 Xrotation Yrotation Zrotation
            JOINT rAnkle
            {
                OFFSET   0.000000  -0.390000   0.000000
                CHANNELS 3 Xrotation Yrotation Zrotation
                JOINT rToeJoint
                {
                    OFFSET   0.000000  -0.050000   0.130000
                    CHANNELS 3 Xrotation Yrotation Zrotation
                    End Site
                    {
                        OFFSET  -0.010000   0.002000   0.060000
                    }
                }
            }
        }
    }
    JOINT lHip
    {
        OFFSET   0.100000  -0.051395   0.000000
        CHANNELS 3 Xrotation Yrotation Zrotation
        JOINT lKnee
        {
            OFFSET   0.000000  -0.410000   0.000000
            CHANNELS 3 Xrotation Yrotation Zrotation
            JOINT lAnkle
            {
                OFFSET   0.000000  -0.390000   0.000000
                CHANNELS 3 Xrotation Yrotation Zrotation
                JOINT lToeJoint
                {
                    OFFSET   0.000000  -0.050000   0.130000
                    CHANNELS 3 Xrotation Yrotation Zrotation
                    End Site
                    {
                        OFFSET   0.010000   0.002000   0.060000
                    }
                }
            }
        }
    }
}
MOTION
Frames: 15
Frame Time:   0.008333
 -2.376719   0.925631   3.975860   0.000000   0.000000   0.000000   0.000000   0.000000   0.000000   0.000000   0.000000   0.000000   0.000000   0.000000   0.000000   0.000000   0.000000   0.000000   0.000000   0.000000   0.000000   0.000000   0.000000   0.000000   0.000000   0.000000   0.000000   0.000000   0.000000   0.000000   0.000000   0.000000   0.000000   0.000000   0.000000   0.000000   0.000000   0.000000   0.000000   0.000000   0.000000   0.000000   0.000000   0.000000   0.000000   0.000000   0.000000   0.000000   0.000000   0.000000   0.000000   0.000000   0.000000   0.000000   0.000000   0.000000   0.000000   0.000000   0.000000   0.000000   0.000000   0.000000   0.000000
 -2.376505   0.924796   3.975033   0.410395   0.263378   0.076448  -0.228374   0.041624  -0.099936   0.055480  -0.123341   0.038516  -0.090803   0.112828  -0.005016  -0.027163  -0.543080  -0.057335  -0.670278  -0.116367   0.366215   0.000000  -0.000000  -0.000000  -0.100382   0.632190  -0.276028  -0.251111   0.346451   0.099061  -0.582211   0.082895  -0.333685   0.001625  -0.881127  -0.004581   0.030916  -0.423096   0.350076  -0.916028  -0.281319  -0.450658   1.272755   0.004106  -0.000277  -0.900930  -0.499026  -0.037651   0.167699   0.000595  -0.000757  -1.218722  -0.086864   0.203230   2.046865  -0.005016   0.003249  -1.755157   0.171452   0.099466  -0.157521   0.000530  -0.000473
 -2.376196   0.923386   3.974371   0.758500   0.562926   0.144915  -0.382662   0.087005  -0.180671   0.178233  -0.264172   0.091017  -0.137479   0.228485  -0.011637  -0.055797  -1.239240  -0.028987  -1.298412  -0.368786   0.776144   0.000000  -0.000000  -0.000000  -0.213202   1.125704  -0.439614  -0.491795   0.800599   0.134556  -1.129564   0.240560  -0.697173   0.003126  -1.702368  -0.007086   0.047660  -1.041137   0.615732  -1.771210  -0.545110  -1.198364   2.588907   0.010934  -0.000269  -1.736551  -0.975798  -0.084752   0.311845   0.001368  -0.001178  -2.359671  -0.165384   0.661017   4.153536  -0.013585   0.007418  -3.391799   0.337812   0.199857  -0.356923   0.001543  -0.001046
 -2.376071   0.923002   3.973765   0.996570   0.785017   0.134584  -0.430685   0.152584  -0.215405   0.359122  -0.384376   0.184072  -0.159818   0.339030  -0.014893  -0.080543  -1.977609   0.174523  -1.881697  -0.680834   1.257872   0.000000  -0.000000  -0.000000  -0.321695   1.443599  -0.514726  -0.715581   1.313354   0.028451  -1.638252   0.459548  -1.110356   0.005241  -2.444211  -0.008098   0.065770  -1.555981   0.835019  -2.656015  -0.970193  -1.465956   3.841472   0.011422  -0.002984  -2.331692  -1.585352   0.155134   0.495130   0.001108  -0.002279  -3.495359  -0.159152   1.166353   5.925401  -0.018199   0.010757  -4.942582   0.562268   0.185523  -0.463857   0.001696  -0.001273
 -2.375834   0.922689   3.973519   1.166448   0.899111   0.216540  -0.473782   0.239779  -0.306729   0.559997  -0.474713   0.249540  -0.159193   0.443053  -0.021838  -0.100028  -2.722195   0.419599  -2.421886  -1.019806   1.760569   0.000000  -0.000000  -0.000000  -0.423546   1.648753  -0.428974  -0.921615   1.865540  -0.097761  -2.109114   0.722679  -1.529932   0.006726  -3.115699  -0.008669   0.085213  -1.943406   0.927158  -3.468272  -1.306539  -1.748002   5.107001   0.010832  -0.005482  -2.926059  -2.090627   0.267922   0.630626   0.000946  -0.002721  -4.489824  -0.242084   1.777860   7.747042  -0.025296   0.011207  -6.365503   0.704570   0.294590  -0.619865   0.002463  -0.001273
 -2.375371   0.922471   3.973580   1.309263   0.936349   0.398087  -0.535603   0.331487  -0.430799   0.741724  -0.547619   0.279100  -0.151152   0.540063  -0.034288  -0.115404  -3.456382   0.683835  -2.922490  -1.371121   2.252667   0.000000  -0.000000  -0.000000  -0.521323   1.777384  -0.278487  -1.111650   2.432821  -0.251465  -2.545057   1.011586  -1.945324   0.007609  -3.726824  -0.009063   0.103479  -2.227316   0.955906  -4.232920  -1.626639  -2.043516   6.338215   0.009217  -0.008087  -3.465590  -2.564295   0.376742   0.751964   0.000717  -0.003020  -5.364028  -0.337170   2.455511   9.486340  -0.033039   0.010946  -7.690356   0.835743   0.401508  -0.752431   0.003095  -0.001119
 -2.374553   0.922314   3.973885   1.435961   0.964336   0.665523  -0.617126   0.401965  -0.556333   0.895795  -0.626255   0.281509  -0.142109   0.629858  -0.049916  -0.127059  -4.175957   0.940596  -3.386488  -1.729063   2.716488   0.000000  -0.000000  -0.000000  -0.615948   1.845481  -0.107812  -1.286923   2.990979  -0.428811  -2.948474   1.307821  -2.356065   0.007922  -4.287637  -0.009340   0.120083  -2.441034   0.933280  -4.945568  -1.894006  -2.449345   7.516028   0.008057  -0.009698  -3.969076  -2.980165   0.429253   0.864709   0.000613  -0.003115  -6.149174  -0.441331   3.179017  11.126378  -0.040378   0.011185  -8.926026   0.956939   0.505020  -0.871466   0.003620  -0.000957
 -2.373769   0.921796   3.974327   1.455575   0.803608   0.800364  -0.500017   0.532280  -0.520560   0.870785  -0.622205   0.296965  -0.207833   0.690552  -0.028297  -0.206559  -4.883066   1.013861  -3.780329  -1.993677   3.047384   0.000000  -0.000000   0.000000  -0.625631   1.793684   0.312517  -1.537117   3.597994  -0.482871  -3.565379   1.526894  -2.648927   0.006790  -5.001555  -0.012555   0.165713  -2.434358   0.694857  -5.767103  -2.137164  -2.725570   9.178585   0.007071  -0.014732  -5.060734  -3.384569   0.510840   0.755332   0.000497  -0.001668  -6.584645  -0.404406   4.234382  12.271951  -0.043814   0.011001  -9.513786   1.168279   0.481275  -0.896732   0.003152  -0.000792
 -2.372868   0.921047   3.974976   1.449038   0.659742   0.940645  -0.413559   0.628820  -0.476104   0.823837  -0.629489   0.321264  -0.278030   0.745707  -0.000656  -0.282633  -5.540209   0.987908  -4.148312  -2.236028   3.284814   0.000000  -0.000000   0.000000  -0.634039   1.740558   0.640075  -1.776176   4.153184  -0.451038  -4.144946   1.719161  -2.859500   0.004677  -5.677796  -0.015074   0.201610  -2.473075   0.539646  -6.560614  -2.381590  -3.023849  10.850437   0.006179  -0.018688  -6.058075  -3.767932   0.588183   0.612464   0.000379  -0.000293  -6.924726  -0.384657   5.394418  13.314067  -0.046475   0.011158 -10.056671   1.368439   0.462779  -0.871493   0.002241  -0.000604
 -2.371773   0.920168   3.975803   1.425197   0.541748   1.113249  -0.358561   0.698952  -0.435472   0.761188  -0.654479   0.340772  -0.348880   0.796710   0.026467  -0.355079  -6.155935   0.900357  -4.491939  -2.461974   3.457034   0.000000  -0.000000   0.000000  -0.643084   1.695578   0.859307  -2.002254   4.656684  -0.366792  -4.687285   1.887715  -3.013879   0.002265  -6.313974  -0.016892   0.235836  -2.541914   0.473830  -7.306534  -2.609026  -3.373962  12.475649   0.005492  -0.021224  -6.973036  -4.125263   0.653324   0.484282   0.000248   0.000636  -7.204160  -0.376592   6.594440  14.290145  -0.048435   0.011619 -10.562536   1.556661   0.448348  -0.842155   0.001446  -0.000445
 -2.370445   0.919208   3.976777   1.389242   0.445291   1.323824  -0.329414   0.748293  -0.398868   0.685968  -0.694005   0.353446  -0.419617   0.844093   0.052018  -0.424284  -6.733800   0.773078  -4.812818  -2.673466   3.582330   0.000000  -0.000000   0.000000  -0.652655   1.656955   0.996589  -2.216049   5.113853  -0.251743  -5.194606   2.035650  -3.130164  -0.000090  -6.911810  -0.018089   0.268727  -2.632192   0.470150  -8.003397  -2.814433  -3.782644  14.036901   0.005048  -0.022618  -7.820879  -4.456507   0.704587   0.369234   0.000112   0.001233  -7.439043  -0.376597   7.804118  15.206478  -0.049635   0.012211 -11.034171   1.733305   0.437219  -0.812275   0.000790  -0.000314
 -2.368865   0.918195   3.977866   1.344312   0.365196   1.570319  -0.320453   0.781149  -0.363456   0.601574  -0.744346   0.361281  -0.489563   0.888176   0.076152  -0.490555  -7.275810   0.621031  -5.112474  -2.871372   3.673452   0.000000  -0.000000   0.000000  -0.662554   1.623016   1.075482  -2.418114   5.529869  -0.119957  -5.668982   2.165989  -3.220332  -0.002216  -7.473077  -0.018751   0.300366  -2.737924   0.506122  -8.653413  -2.996098  -4.247769  15.527902   0.004835  -0.023182  -8.610310  -4.762778   0.742433   0.265163  -0.000021   0.001595  -7.639860  -0.382826   9.007138  16.065835  -0.050083   0.012794 -11.474131   1.898841   0.428840  -0.783350   0.000269  -0.000207
 -2.367025   0.917142   3.979047   1.292371   0.297306   1.847994  -0.326781   0.800923  -0.325992   0.511160  -0.802360   0.367351  -0.558065   0.929204   0.099215  -0.554112  -7.783635   0.455074  -5.392324  -3.056344   3.739796   0.000000  -0.000000   0.000000  -0.672602   1.592824   1.113508  -2.608936   5.909222   0.019556  -6.112380   2.281309  -3.292263  -0.004042  -7.999575  -0.018968   0.330866  -2.854517   0.566639  -9.259472  -3.153537  -4.763936  16.947043   0.004817  -0.023165  -9.347106  -5.045501   0.768018   0.170622  -0.000145   0.001791  -7.814164  -0.394177  10.193444  16.870708  -0.049838   0.013278 -11.884716   2.053804   0.422770  -0.756173  -0.000130  -0.000123
 -2.365319   0.915975   3.980324   1.240972   0.413175   1.905760  -0.260366   0.684836  -0.129138   0.238930  -0.807334   0.468529  -0.493216   0.945275   0.051112  -0.629756  -8.287007   0.043716  -5.663256  -3.340388   3.712452  -0.000079   0.161839   0.000845  -0.653374   1.417995   1.487820  -2.834756   6.281696   0.308371  -6.833760   2.259589  -3.474632  -0.007331  -8.752916  -0.023666   0.334902  -2.763513   0.568806  -9.692848  -3.462749  -5.032676  18.128203   0.004274  -0.021520 -10.239150  -5.328396   0.523619   0.237557   0.000095   0.001115  -7.961711  -0.202813  11.478458  17.213533  -0.043393   0.013041 -11.321067   1.989747  -0.056362  -0.521542  -0.001894   0.000698
 -2.363640   0.914723   3.981560   1.202732   0.595243   1.899262  -0.207722   0.553532   0.081597  -0.037881  -0.835730   0.585513  -0.437908   0.962156   0.014004  -0.704938  -8.754602  -0.444058  -5.918392  -3.597383   3.611753  -0.000382   0.317805   0.001468  -0.637313   1.272782   1.787865  -3.055042   6.587330   0.647721  -7.514728   2.197823  -3.603483  -0.010366  -9.479273  -0.026814   0.325753  -2.795285   0.624462 -10.080368  -3.757564  -5.229078  19.213516   0.003885  -0.019076 -11.089934  -5.590264   0.290855   0.281915   0.000207   0.000724  -8.141075  -0.017092  12.659148  17.464306  -0.036903   0.012240 -10.786790   1.926573  -0.504291  -0.233011  -0.003341   0.001760
